<?xml version="1.0" standalone="no"?>
<!DOCTYPE svg PUBLIC "-//W3C//DTD SVG 20010904//EN"
 "http://www.w3.org/TR/2001/REC-SVG-20010904/DTD/svg10.dtd">
<svg version="1.0" xmlns="http://www.w3.org/2000/svg"
 width="512.000000pt" height="512.000000pt" viewBox="0 0 512.000000 512.000000"
 preserveAspectRatio="xMidYMid meet">
<metadata>
Created by potrace 1.11, written by Peter Selinger 2001-2013
</metadata>
<g transform="translate(0.000000,512.000000) scale(0.100000,-0.100000)"
fill="#000000" stroke="none">
<path d="M2379 5116 c-2 -2 -35 -6 -74 -9 -186 -16 -462 -81 -645 -152 -243
-93 -522 -253 -720 -411 -509 -409 -855 -1052 -928 -1724 -9 -86 -8 -459 1
-535 61 -490 237 -919 534 -1307 93 -122 276 -309 393 -402 326 -259 721 -445
1115 -525 188 -38 274 -46 500 -46 211 0 294 6 447 34 255 47 433 106 673 221
385 185 704 449 944 780 33 47 65 90 69 95 42 55 168 291 218 407 76 177 156
438 179 588 25 163 30 233 29 455 0 182 -5 247 -29 400 -69 430 -294 909 -590
1255 -63 74 -234 238 -315 303 -356 287 -838 498 -1260 552 -25 3 -61 8 -80
11 -41 6 -455 15 -461 10z m-519 -542 c-17 -38 -35 -78 -40 -89 -33 -74 -80
-189 -77 -191 2 -2 402 -225 587 -327 30 -16 94 -52 142 -79 l87 -49 68 37
c37 20 73 40 78 44 6 4 42 25 80 45 88 48 589 326 592 329 2 2 -31 81 -72 176
-41 95 -74 175 -72 176 12 12 371 -148 449 -199 18 -12 44 -28 58 -35 44 -23
212 -152 299 -231 79 -71 226 -234 279 -308 l22 -32 -22 4 c-13 2 -62 6 -110
10 -47 3 -95 7 -105 10 -11 2 -49 5 -84 7 l-64 3 -6 -35 c-4 -19 -9 -50 -13
-67 -3 -18 -8 -47 -11 -63 -3 -17 -12 -62 -20 -100 -8 -38 -17 -84 -20 -102
-3 -18 -26 -134 -50 -258 -25 -124 -47 -241 -50 -261 -6 -39 -27 -16 334 -354
35 -33 79 -73 96 -90 146 -138 239 -220 249 -220 7 0 44 28 82 61 133 118 199
174 205 174 3 0 5 -21 3 -47 -8 -130 -15 -233 -19 -254 -48 -284 -100 -452
-209 -671 -65 -130 -185 -322 -195 -312 -3 3 -24 85 -46 182 l-41 177 -29 -1
c-17 0 -57 -4 -90 -8 -33 -5 -71 -9 -85 -11 -14 -1 -47 -5 -75 -9 -27 -4 -68
-9 -90 -11 -22 -2 -130 -15 -240 -29 -110 -14 -225 -28 -255 -32 -30 -3 -59
-9 -63 -11 -7 -4 -127 -248 -127 -258 0 -1 -24 -54 -54 -116 -56 -119 -99
-211 -172 -367 -24 -52 -44 -98 -44 -103 0 -4 66 -47 148 -95 81 -48 153 -92
160 -99 10 -9 -1 -16 -55 -30 -37 -11 -72 -20 -78 -22 -44 -14 -277 -53 -345
-59 -104 -8 -284 -8 -388 1 -112 10 -263 38 -401 76 -98 27 -107 14 97 135 78
47 142 88 142 93 0 4 -41 95 -91 202 -50 107 -100 214 -111 239 -11 25 -43 92
-70 150 -27 58 -65 139 -84 181 l-35 76 -232 27 c-128 16 -241 30 -252 31 -42
7 -112 15 -170 20 -33 3 -69 8 -80 10 -32 6 -137 18 -169 19 l-30 1 -40 -177
c-23 -97 -43 -179 -46 -182 -13 -12 -159 228 -230 378 -75 159 -155 432 -174
596 -17 143 -25 299 -15 305 3 2 67 -50 142 -115 75 -66 140 -120 144 -120 4
0 37 28 73 62 106 99 319 298 389 363 35 33 100 94 144 135 l79 76 -20 109
c-12 61 -24 126 -27 145 -3 19 -8 42 -10 50 -4 14 -58 290 -71 364 -3 17 -9
49 -14 71 -5 22 -11 58 -14 80 -12 77 -21 100 -42 99 -57 -3 -272 -22 -326
-29 -16 -2 -28 1 -28 5 0 17 127 167 225 266 227 228 482 390 795 505 41 15
76 26 78 25 1 -2 -12 -34 -28 -72z"/>
<path d="M2320 3210 c-129 -94 -248 -181 -265 -193 -16 -13 -86 -63 -155 -112
-69 -50 -133 -97 -142 -105 -16 -15 -7 -47 139 -493 l157 -477 507 0 508 0 54
168 c30 92 99 302 152 467 54 165 100 305 102 311 2 7 -35 40 -84 75 -48 35
-92 67 -98 72 -30 24 -621 450 -630 453 -5 2 -116 -73 -245 -166z"/>
</g>
</svg>
