<svg width="390" height="594" xmlns="http://www.w3.org/2000/svg">
  <g fill="none" fill-rule="evenodd">
    <path
      d="M.105469 9v576c0 4.970563 4.029437 9 9 9H381c4.97056275 0 9-4.029437 9-9V9c0-4.97056275-4.02943725-9-9-9H9.105469c-4.970563 0-9 4.02943725-9 9z"
      fill="#43A600"/>
    <g fill="#FFF" fill-opacity=".2">
      <path
        d="M10.641173 14.372987c2.15947-.35573771 3.309351-1.50584118 3.727091-3.72849543h-3.727091V14.372987zm368.54298056-3.7435664h-3.7111205c.19039417 2.10397035 1.55916539 3.48045237 3.7111205 3.72786747V10.6294206zM14.43152 582.067264c-.556152-2.47729-1.964693-3.784069-3.765609-3.670723v3.670723h3.765609zm364.76140171-3.74545c-2.15884438.090112-3.76717404 1.763304-3.63878324 3.680771h3.63878324v-3.680771zM232.94014 100.6922874h-76.209649c20.117586 25.4372876 58.490779 23.4513726 76.209649 0zM156.737067 491.946312h76.317372c-19.21384-24.590801-57.362192-24.386087-76.317372 0zm-10.942028 90.115301c.640075.027944 1.10009.065621 1.560105.065935 31.506477.002826 63.013267-.005337 94.520056.030456 1.316789.00157 1.678162-.389333 1.670647-1.676645-.047912-8.420277-.051983-16.841182.002818-25.26146.009081-1.414159-.378596-1.834576-1.837241-1.832378-31.402198.044585-62.804397.034223-94.206908.034223h-1.709477v28.639869zm.029436-571.51005908c-.039456.71901091-.096136 1.27977662-.096763 1.84054233-.005636 8.31917595.036326 16.63897995-.039456 24.95784195-.014405 1.5749165.525776 1.8863832 1.973773 1.8844993 31.310759-.0373634 62.621518-.0376774 93.932277.000942 1.482444.0018838 1.972835-.3821119 1.959996-1.9202929-.068893-8.2661136-.069206-16.5337971 0-24.80022473.013152-1.55482184-.372647-2.00663699-1.993816-2.00381119-31.310759.05494625-62.621831.04050324-93.932277.04050324h-1.803734zm-.159392 284.94119708h98.234621c.137159-13.204369-6.215367-31.027048-23.581632-41.262435-16.915332-9.970075-34.303518-9.999903-51.099853.185248-15.100951 9.157184-22.547304 23.189514-23.553136 41.077187zm98.448188 1.587476c-.758132-.059656-1.167417-.11994-1.576701-.11994-15.026108-.00471-30.053782-.101729-45.077072.124021-1.806552.027002-3.583982-.060912-5.379261-.072843-14.868908-.097961-29.739068-.056516-44.609228-.051178-.507613 0-1.014914.063109-1.784319.114288.842995 17.130984 7.790816 30.89863 22.060045 40.173243 17.090068 11.108248 35.030648 11.503861 52.543466 1.102693 15.351156-9.117624 22.847927-23.316362 23.82307-41.270284zm-99.716439 255.096592c.729949-.048352 1.191216-.105497 1.652484-.105497 32.35135-.004395 64.702388.004082 97.053426-.031711 1.385994-.00157 1.756449.409742 1.747054 1.779944-.058872 8.788888-.030062 17.578404-.030062 26.36792v1.816052h58.527417v-88.447133H85.918266v88.476019h58.478566v-29.855594zM244.797814 40.3352464H144.376791V10.66929588H85.880688V99.0894268h217.4614527V10.66741201H244.797814V40.3352464zm134.42924087-24.38640099c-2.97678773-.62575928-4.72603413-2.50586291-5.41120261-5.33355384H304.8029775v2.39816826c0 28.41223407.0003131 56.82446817-.0006263 85.23701627 0 2.3039747-.0037578 2.3074284-2.3216815 2.3074284-21.9185017.000942-43.8366907.0072215-65.7548797-.0175828-1.173367-.0012559-1.959369.2910582-2.778252 1.2537164-11.904646 13.9943389-27.074176 20.2572689-45.273102 18.1938019-13.223-1.499248-24.198535-7.710372-32.72525-18.0408943-.861471-1.0439787-1.716366-1.4163573-3.031902-1.4141594-22.02278.0361075-44.045561.0260602-66.068028.0251182-2.317297 0-2.31855-.0031397-2.31855-2.2628435-.000313-28.5171029.000626-57.0338918-.00595-85.55099478 0-.70864962-.080166-1.41761321-.125572-2.15860262H15.944652c-.667632 2.96521355-2.550279 4.7219236-5.323208 5.39603558V295.369043l133.696475-.000942c.811993-27.73247 23.047715-49.394793 50.010096-49.632161 11.477825-.100787 21.920381 3.233037 31.011703 10.268983 12.812462 9.915443 19.353817 23.187631 20.097544 39.36412h133.78979287V15.94884541zM84.530393 582.095209v-2.281369c0-28.517417 0-57.034834.000313-85.55225 0-2.2057.001879-2.208212 2.190785-2.208212 22.075077-.000628 44.150153-.013187 66.225229.031084 1.338396.002826 2.161037-.428581 3.021568-1.43237 11.619994-13.55728 26.336398-19.784103 44.111322-18.097724 13.719653 1.301441 24.969193 7.571279 33.794025 18.167741.813559.976788 1.607703 1.364551 2.887541 1.362039 21.866519-.043329 43.733038-.031398 65.5992447-.031084 2.4397384 0 2.4422436.000942 2.4422436 2.484827.0006263 28.412862-.0006263 56.82541.0056367 85.238272 0 .758258.0767213 1.516516.1189963 2.293613h68.91235423c.64477235-2.991901 2.47011379-4.781579 5.35953315-5.407967V297.076773H245.51461c-.14029 25.489407-20.465807 47.913756-47.078715 49.693387-12.649626.845544-24.197283-2.518108-34.23212-10.350617-12.724155-9.93177-19.162171-23.198934-19.86832-39.314198H10.584806v279.59634c3.030649.58557 4.691275 2.549192 5.414647 5.393524h68.53094zM380.68945743 9.1427321v2.44934677c-.00814185 93.50783953-.01972834 187.01599313-.02379927 280.52383213-.00407093 93.560274-.00093944 187.120234 0 280.680194 0 3.139786-.01628371 6.279572.04070928 9.418415.0181626 1.011011-.2943594 1.3881-1.33244601 1.358586-2.39871598-.068134-4.80056343-.043957-7.20115829-.043643-51.71863364.009733-307.90118614.072843-362.93261614.072843V9.20113212c54.893645 0 316.1517049-.05840001 371.44931043-.05840001z"/>
      <path
        d="M194.973602 298.366157c-1.167417 0-2.113751-.948843-2.113751-2.119355s.946334-2.119355 2.113751-2.119355c1.16773 0 2.113751.948843 2.113751 2.119355s-.946021 2.119355-2.113751 2.119355"/>
      <path
        d="M194.973602 70.4177208c-1.167417 0-2.113751-.9488432-2.113751-2.1193553s.946334-2.1193553 2.113751-2.1193553c1.16773 0 2.113751.9488432 2.113751 2.1193553s-.946021 2.1193553-2.113751 2.1193553"/>
      <path
        d="M194.973602 525.900048c-1.167417 0-2.113751-.94853-2.113751-2.119356 0-1.170512.946334-2.119355 2.113751-2.119355 1.16773 0 2.113751.948843 2.113751 2.119355 0 1.170826-.946021 2.119356-2.113751 2.119356"/>
    </g>
  </g>
</svg>
